{
    "asset": {
        "version": "2.0",
        "generator": "https://3dviewer.net"
    },
    "scene": 0,
    "scenes": [
        {
            "nodes": [
                0,
                1,
                2,
                3,
                4,
                5,
                6,
                7,
                8,
                9
            ]
        }
    ],
    "nodes": [
        {
            "mesh": 0
        },
        {
            "mesh": 1
        },
        {
            "mesh": 2
        },
        {
            "mesh": 3
        },
        {
            "mesh": 4
        },
        {
            "mesh": 5
        },
        {
            "mesh": 6
        },
        {
            "mesh": 7
        },
        {
            "mesh": 8
        },
        {
            "mesh": 9
        }
    ],
    "materials": [
        {
            "name": "Material.006",
            "pbrMetallicRoughness": {
                "baseColorFactor": [
                    1,
                    1,
                    1,
                    1
                ],
                "metallicFactor": 0,
                "roughnessFactor": 1,
                "baseColorTexture": {
                    "index": 0
                }
            },
            "emissiveFactor": [
                0,
                0,
                0
            ],
            "doubleSided": true,
            "alphaMode": "OPAQUE"
        },
        {
            "name": "Material.001",
            "pbrMetallicRoughness": {
                "baseColorFactor": [
                    1,
                    1,
                    1,
                    1
                ],
                "metallicFactor": 0,
                "roughnessFactor": 1,
                "baseColorTexture": {
                    "index": 1
                }
            },
            "emissiveFactor": [
                0,
                0,
                0
            ],
            "doubleSided": true,
            "alphaMode": "OPAQUE"
        },
        {
            "name": "Material.003",
            "pbrMetallicRoughness": {
                "baseColorFactor": [
                    1,
                    1,
                    1,
                    1
                ],
                "metallicFactor": 0,
                "roughnessFactor": 1,
                "baseColorTexture": {
                    "index": 2
                }
            },
            "emissiveFactor": [
                0,
                0,
                0
            ],
            "doubleSided": true,
            "alphaMode": "OPAQUE"
        },
        {
            "name": "Material.004",
            "pbrMetallicRoughness": {
                "baseColorFactor": [
                    0,
                    0,
                    0,
                    1
                ],
                "metallicFactor": 0,
                "roughnessFactor": 1
            },
            "emissiveFactor": [
                0,
                0,
                0
            ],
            "doubleSided": true,
            "alphaMode": "OPAQUE"
        },
        {
            "name": "Material.002",
            "pbrMetallicRoughness": {
                "baseColorFactor": [
                    0.02732089163382382,
                    0.02732089163382382,
                    0.02732089163382382,
                    1
                ],
                "metallicFactor": 0,
                "roughnessFactor": 1
            },
            "emissiveFactor": [
                0,
                0,
                0
            ],
            "doubleSided": true,
            "alphaMode": "OPAQUE"
        },
        {
            "name": "Material.005",
            "pbrMetallicRoughness": {
                "baseColorFactor": [
                    0,
                    0,
                    0,
                    1
                ],
                "metallicFactor": 0,
                "roughnessFactor": 1
            },
            "emissiveFactor": [
                0,
                0,
                0
            ],
            "doubleSided": true,
            "alphaMode": "OPAQUE"
        },
        {
            "name": "Material.007",
            "pbrMetallicRoughness": {
                "baseColorFactor": [
                    1,
                    1,
                    1,
                    1
                ],
                "metallicFactor": 0,
                "roughnessFactor": 1,
                "baseColorTexture": {
                    "index": 3
                }
            },
            "emissiveFactor": [
                0,
                0,
                0
            ],
            "doubleSided": true,
            "alphaMode": "OPAQUE"
        },
        {
            "name": "Material.010",
            "pbrMetallicRoughness": {
                "baseColorFactor": [
                    0.7991027380100881,
                    0.04817182422013895,
                    0.05612849004241121,
                    1
                ],
                "metallicFactor": 0,
                "roughnessFactor": 1
            },
            "emissiveFactor": [
                0,
                0,
                0
            ],
            "doubleSided": true,
            "alphaMode": "OPAQUE"
        },
        {
            "name": "Material",
            "pbrMetallicRoughness": {
                "baseColorFactor": [
                    0.5775804404214573,
                    0.5775804404214573,
                    0.5775804404214573,
                    1
                ],
                "metallicFactor": 0,
                "roughnessFactor": 1
            },
            "emissiveFactor": [
                0,
                0,
                0
            ],
            "doubleSided": true,
            "alphaMode": "OPAQUE"
        }
    ],
    "meshes": [
        {
            "name": "Cube.001",
            "primitives": [
                {
                    "attributes": {
                        "POSITION": 1,
                        "NORMAL": 2,
                        "TEXCOORD_0": 3
                    },
                    "indices": 0,
                    "mode": 4,
                    "material": 0
                }
            ]
        },
        {
            "name": "Sphere.001",
            "primitives": [
                {
                    "attributes": {
                        "POSITION": 5,
                        "NORMAL": 6,
                        "TEXCOORD_0": 7
                    },
                    "indices": 4,
                    "mode": 4,
                    "material": 1
                }
            ]
        },
        {
            "name": "Cube.002",
            "primitives": [
                {
                    "attributes": {
                        "POSITION": 9,
                        "NORMAL": 10,
                        "TEXCOORD_0": 11
                    },
                    "indices": 8,
                    "mode": 4,
                    "material": 2
                }
            ]
        },
        {
            "name": "Vert.002",
            "primitives": [
                {
                    "attributes": {
                        "POSITION": 13,
                        "NORMAL": 14
                    },
                    "indices": 12,
                    "mode": 4,
                    "material": 3
                }
            ]
        },
        {
            "name": "Vert.003",
            "primitives": [
                {
                    "attributes": {
                        "POSITION": 16,
                        "NORMAL": 17
                    },
                    "indices": 15,
                    "mode": 4,
                    "material": 4
                }
            ]
        },
        {
            "name": "Vert.004",
            "primitives": [
                {
                    "attributes": {
                        "POSITION": 19,
                        "NORMAL": 20
                    },
                    "indices": 18,
                    "mode": 4,
                    "material": 5
                }
            ]
        },
        {
            "name": "Cylinder",
            "primitives": [
                {
                    "attributes": {
                        "POSITION": 22,
                        "NORMAL": 23,
                        "TEXCOORD_0": 24
                    },
                    "indices": 21,
                    "mode": 4,
                    "material": 6
                }
            ]
        },
        {
            "name": "Sphere",
            "primitives": [
                {
                    "attributes": {
                        "POSITION": 26,
                        "NORMAL": 27,
                        "TEXCOORD_0": 28
                    },
                    "indices": 25,
                    "mode": 4,
                    "material": 7
                }
            ]
        },
        {
            "name": "Vert.014",
            "primitives": [
                {
                    "attributes": {
                        "POSITION": 30,
                        "NORMAL": 31
                    },
                    "indices": 29,
                    "mode": 4,
                    "material": 8
                }
            ]
        },
        {
            "name": "Vert.015",
            "primitives": [
                {
                    "attributes": {
                        "POSITION": 33,
                        "NORMAL": 34
                    },
                    "indices": 32,
                    "mode": 4,
                    "material": 8
                }
            ]
        }
    ],
    "buffers": [
        {
            "uri": "model.bin",
            "byteLength": 2008784
        }
    ],
    "bufferViews": [
        {
            "buffer": 0,
            "byteOffset": 0,
            "byteLength": 295680
        },
        {
            "buffer": 0,
            "byteOffset": 295680,
            "byteLength": 168084
        },
        {
            "buffer": 0,
            "byteOffset": 463764,
            "byteLength": 168084
        },
        {
            "buffer": 0,
            "byteOffset": 631848,
            "byteLength": 112056
        },
        {
            "buffer": 0,
            "byteOffset": 743904,
            "byteLength": 23040
        },
        {
            "buffer": 0,
            "byteOffset": 766944,
            "byteLength": 47616
        },
        {
            "buffer": 0,
            "byteOffset": 814560,
            "byteLength": 47616
        },
        {
            "buffer": 0,
            "byteOffset": 862176,
            "byteLength": 31744
        },
        {
            "buffer": 0,
            "byteOffset": 893920,
            "byteLength": 59904
        },
        {
            "buffer": 0,
            "byteOffset": 953824,
            "byteLength": 45360
        },
        {
            "buffer": 0,
            "byteOffset": 999184,
            "byteLength": 45360
        },
        {
            "buffer": 0,
            "byteOffset": 1044544,
            "byteLength": 30240
        },
        {
            "buffer": 0,
            "byteOffset": 1074784,
            "byteLength": 6912
        },
        {
            "buffer": 0,
            "byteOffset": 1081696,
            "byteLength": 3480
        },
        {
            "buffer": 0,
            "byteOffset": 1085176,
            "byteLength": 3480
        },
        {
            "buffer": 0,
            "byteOffset": 1088656,
            "byteLength": 6912
        },
        {
            "buffer": 0,
            "byteOffset": 1095568,
            "byteLength": 3480
        },
        {
            "buffer": 0,
            "byteOffset": 1099048,
            "byteLength": 3480
        },
        {
            "buffer": 0,
            "byteOffset": 1102528,
            "byteLength": 6912
        },
        {
            "buffer": 0,
            "byteOffset": 1109440,
            "byteLength": 3480
        },
        {
            "buffer": 0,
            "byteOffset": 1112920,
            "byteLength": 3480
        },
        {
            "buffer": 0,
            "byteOffset": 1116400,
            "byteLength": 135168
        },
        {
            "buffer": 0,
            "byteOffset": 1251568,
            "byteLength": 270336
        },
        {
            "buffer": 0,
            "byteOffset": 1521904,
            "byteLength": 270336
        },
        {
            "buffer": 0,
            "byteOffset": 1792240,
            "byteLength": 180224
        },
        {
            "buffer": 0,
            "byteOffset": 1972464,
            "byteLength": 11520
        },
        {
            "buffer": 0,
            "byteOffset": 1983984,
            "byteLength": 6708
        },
        {
            "buffer": 0,
            "byteOffset": 1990692,
            "byteLength": 6708
        },
        {
            "buffer": 0,
            "byteOffset": 1997400,
            "byteLength": 4472
        },
        {
            "buffer": 0,
            "byteOffset": 2001872,
            "byteLength": 528
        },
        {
            "buffer": 0,
            "byteOffset": 2002400,
            "byteLength": 288
        },
        {
            "buffer": 0,
            "byteOffset": 2002688,
            "byteLength": 288
        },
        {
            "buffer": 0,
            "byteOffset": 2002976,
            "byteLength": 2880
        },
        {
            "buffer": 0,
            "byteOffset": 2005856,
            "byteLength": 1464
        },
        {
            "buffer": 0,
            "byteOffset": 2007320,
            "byteLength": 1464
        }
    ],
    "accessors": [
        {
            "bufferView": 0,
            "byteOffset": 0,
            "componentType": 5125,
            "count": 73920,
            "type": "SCALAR"
        },
        {
            "bufferView": 1,
            "byteOffset": 0,
            "componentType": 5126,
            "count": 14007,
            "min": [
                -0.18857498614435553,
                1.0966224052721456,
                -0.19172230371302668
            ],
            "max": [
                0.1885748529849689,
                1.5126171165995785,
                0.18862599196617236
            ],
            "type": "VEC3"
        },
        {
            "bufferView": 2,
            "byteOffset": 0,
            "componentType": 5126,
            "count": 14007,
            "type": "VEC3"
        },
        {
            "bufferView": 3,
            "byteOffset": 0,
            "componentType": 5126,
            "count": 14007,
            "type": "VEC2"
        },
        {
            "bufferView": 4,
            "byteOffset": 0,
            "componentType": 5125,
            "count": 5760,
            "type": "SCALAR"
        },
        {
            "bufferView": 5,
            "byteOffset": 0,
            "componentType": 5126,
            "count": 3968,
            "min": [
                -0.0637342254719222,
                1.3143105833064475,
                0.1778324533509945
            ],
            "max": [
                0.06391447103291092,
                1.3465585997532763,
                0.19621867577311747
            ],
            "type": "VEC3"
        },
        {
            "bufferView": 6,
            "byteOffset": 0,
            "componentType": 5126,
            "count": 3968,
            "type": "VEC3"
        },
        {
            "bufferView": 7,
            "byteOffset": 0,
            "componentType": 5126,
            "count": 3968,
            "type": "VEC2"
        },
        {
            "bufferView": 8,
            "byteOffset": 0,
            "componentType": 5125,
            "count": 14976,
            "type": "SCALAR"
        },
        {
            "bufferView": 9,
            "byteOffset": 0,
            "componentType": 5126,
            "count": 3780,
            "min": [
                -0.19800889177599146,
                1.1885274595130113,
                -0.20047404956513315
            ],
            "max": [
                0.19385585600768884,
                1.5167621122912784,
                0.1818132645206063
            ],
            "type": "VEC3"
        },
        {
            "bufferView": 10,
            "byteOffset": 0,
            "componentType": 5126,
            "count": 3780,
            "type": "VEC3"
        },
        {
            "bufferView": 11,
            "byteOffset": 0,
            "componentType": 5126,
            "count": 3780,
            "type": "VEC2"
        },
        {
            "bufferView": 12,
            "byteOffset": 0,
            "componentType": 5125,
            "count": 1728,
            "type": "SCALAR"
        },
        {
            "bufferView": 13,
            "byteOffset": 0,
            "componentType": 5126,
            "count": 290,
            "min": [
                -0.023266778658044607,
                1.3692921154574267,
                0.1605697285402168
            ],
            "max": [
                0.0480545913281803,
                1.4646789895467407,
                0.21591822401690794
            ],
            "type": "VEC3"
        },
        {
            "bufferView": 14,
            "byteOffset": 0,
            "componentType": 5126,
            "count": 290,
            "type": "VEC3"
        },
        {
            "bufferView": 15,
            "byteOffset": 0,
            "componentType": 5125,
            "count": 1728,
            "type": "SCALAR"
        },
        {
            "bufferView": 16,
            "byteOffset": 0,
            "componentType": 5126,
            "count": 290,
            "min": [
                -0.07176493726831,
                1.3936177304167452,
                0.16000371095189567
            ],
            "max": [
                0.020800910820389887,
                1.464335884095888,
                0.20878775178669318
            ],
            "type": "VEC3"
        },
        {
            "bufferView": 17,
            "byteOffset": 0,
            "componentType": 5126,
            "count": 290,
            "type": "VEC3"
        },
        {
            "bufferView": 18,
            "byteOffset": 0,
            "componentType": 5125,
            "count": 1728,
            "type": "SCALAR"
        },
        {
            "bufferView": 19,
            "byteOffset": 0,
            "componentType": 5126,
            "count": 290,
            "min": [
                0.046066052254347276,
                1.362315449652296,
                0.16274919423492046
            ],
            "max": [
                0.10168213937078177,
                1.4603798285937208,
                0.21972496092881724
            ],
            "type": "VEC3"
        },
        {
            "bufferView": 20,
            "byteOffset": 0,
            "componentType": 5126,
            "count": 290,
            "type": "VEC3"
        },
        {
            "bufferView": 21,
            "byteOffset": 0,
            "componentType": 5125,
            "count": 33792,
            "type": "SCALAR"
        },
        {
            "bufferView": 22,
            "byteOffset": 0,
            "componentType": 5126,
            "count": 22528,
            "min": [
                -0.2502404410485052,
                1.2346374874597337,
                -0.04480242411229802
            ],
            "max": [
                0.2559805894711839,
                1.3577512364561999,
                -0.0036024136243613843
            ],
            "type": "VEC3"
        },
        {
            "bufferView": 23,
            "byteOffset": 0,
            "componentType": 5126,
            "count": 22528,
            "type": "VEC3"
        },
        {
            "bufferView": 24,
            "byteOffset": 0,
            "componentType": 5126,
            "count": 22528,
            "type": "VEC2"
        },
        {
            "bufferView": 25,
            "byteOffset": 0,
            "componentType": 5125,
            "count": 2880,
            "type": "SCALAR"
        },
        {
            "bufferView": 26,
            "byteOffset": 0,
            "componentType": 5126,
            "count": 559,
            "min": [
                -0.04035470729111634,
                1.1661886312067509,
                0.1098709381954075
            ],
            "max": [
                0.05296562795760229,
                1.2163251303136349,
                0.16000744626739616
            ],
            "type": "VEC3"
        },
        {
            "bufferView": 27,
            "byteOffset": 0,
            "componentType": 5126,
            "count": 559,
            "type": "VEC3"
        },
        {
            "bufferView": 28,
            "byteOffset": 0,
            "componentType": 5126,
            "count": 559,
            "type": "VEC2"
        },
        {
            "bufferView": 29,
            "byteOffset": 0,
            "componentType": 5125,
            "count": 132,
            "type": "SCALAR"
        },
        {
            "bufferView": 30,
            "byteOffset": 0,
            "componentType": 5126,
            "count": 24,
            "min": [
                -0.08267076704268739,
                1.228315701320572,
                0.15987492011047066
            ],
            "max": [
                0.08354616197462228,
                1.249848256275253,
                0.18930781428504206
            ],
            "type": "VEC3"
        },
        {
            "bufferView": 31,
            "byteOffset": 0,
            "componentType": 5126,
            "count": 24,
            "type": "VEC3"
        },
        {
            "bufferView": 32,
            "byteOffset": 0,
            "componentType": 5125,
            "count": 720,
            "type": "SCALAR"
        },
        {
            "bufferView": 33,
            "byteOffset": 0,
            "componentType": 5126,
            "count": 122,
            "min": [
                -0.0685267816216607,
                1.1789997432115515,
                0.1482620538723376
            ],
            "max": [
                0.06727267975189462,
                1.2036856308915682,
                0.17274703681165793
            ],
            "type": "VEC3"
        },
        {
            "bufferView": 34,
            "byteOffset": 0,
            "componentType": 5126,
            "count": 122,
            "type": "VEC3"
        }
    ],
    "images": [
        {
            "uri": "Binary_0.png"
        },
        {
            "uri": "Binary_1.png"
        },
        {
            "uri": "Binary_2.png"
        },
        {
            "uri": "Binary_3.png"
        }
    ],
    "textures": [
        {
            "source": 0
        },
        {
            "source": 1
        },
        {
            "source": 2
        },
        {
            "source": 3
        }
    ]
}